<svg version="1.1" id="Layer_1" xmlns="http://www.w3.org/2000/svg" xmlns:xlink="http://www.w3.org/1999/xlink" x="0px" y="0px"
	 width="100%" viewBox="0 0 1024 1024" enable-background="new 0 0 1024 1024" xml:space="preserve">
<path fill="#000000" opacity="1.000000" stroke="none" 
	d="
M863.000000,1025.000000 
	C648.975891,1025.000000 434.951843,1025.000000 220.507629,1024.718140 
	C218.353287,1017.501648 212.792862,1013.531616 208.011353,1009.000366 
	C200.685791,1002.058289 194.748169,994.502197 195.096237,983.644287 
	C195.244522,979.018433 193.746811,974.741516 191.385880,970.837708 
	C187.089935,963.734314 184.928055,955.988831 183.339127,947.893616 
	C181.284088,937.423584 180.641129,926.648315 177.985764,916.406677 
	C174.340790,902.348267 167.574860,889.461365 159.374725,877.342712 
	C153.697830,868.953186 147.686447,860.786621 142.108200,852.375610 
	C138.014069,846.202332 133.766922,840.582947 128.347122,835.519531 
	C119.750298,827.488159 113.543335,818.039062 113.744499,805.459167 
	C113.815704,801.006226 113.264366,796.416077 112.173477,792.096680 
	C109.356712,780.943359 108.867256,769.789673 110.362183,758.407837 
	C111.183754,752.152588 111.936150,745.748169 111.492935,739.498047 
	C110.726845,728.694458 110.568260,717.879028 109.968086,707.079102 
	C109.558510,699.709045 111.056786,692.804016 114.408394,686.322205 
	C116.387505,682.494690 117.030609,678.521179 117.126709,674.283447 
	C117.412926,661.662964 114.372116,649.451050 112.183701,637.212585 
	C107.578598,611.459045 108.260208,585.925781 112.053589,560.168640 
	C114.741798,541.915588 117.387253,523.550293 115.616714,504.950562 
	C113.959419,487.540375 112.762421,470.131897 112.582779,452.600952 
	C112.393600,434.139435 112.917831,415.625702 110.862350,397.193481 
	C109.728325,387.024323 105.513107,379.237335 97.222221,372.799866 
	C76.329895,356.577972 59.289589,336.933228 47.504982,313.021912 
	C45.556034,309.067444 42.648602,305.950653 39.129116,303.257782 
	C32.270123,298.009674 28.301689,291.362213 28.754984,282.274200 
	C29.169434,273.964966 29.134550,265.615356 28.888172,257.295654 
	C28.579168,246.861191 32.695053,237.585144 38.772022,230.138870 
	C46.073753,221.191849 53.794334,212.443832 61.713345,203.969620 
	C66.401520,198.952759 70.973839,194.046951 74.280174,187.938095 
	C76.327103,184.156158 79.557442,181.235992 83.040779,178.502930 
	C91.091713,172.186096 99.746902,166.841949 108.923874,162.507401 
	C121.375496,156.626144 128.361694,146.467133 133.759705,134.391846 
	C140.851944,118.526573 144.624863,101.958008 146.206284,84.753983 
	C146.793198,78.368980 148.483398,71.809380 152.371613,66.990364 
	C160.807526,56.535000 169.234268,45.804893 181.031464,38.713017 
	C191.017456,32.709953 200.632889,26.081106 211.116776,20.904274 
	C213.993927,19.483561 217.272476,17.357168 215.708221,13.697433 
	C213.936539,9.552331 212.990936,5.301132 212.000000,1.000000 
	C298.690735,1.000000 385.381500,1.000000 472.462891,1.336970 
	C472.735138,3.986219 473.166077,6.503371 472.394501,8.572036 
	C470.158875,14.566200 473.132172,18.446341 477.104797,22.104462 
	C478.695892,23.569603 480.389771,24.925749 481.945435,26.426268 
	C493.660522,37.725933 500.590820,52.263580 508.528961,66.088676 
	C511.342163,70.988197 512.956970,77.006950 517.355286,80.441658 
	C524.710266,86.185326 531.038147,93.130348 538.848999,98.305702 
	C541.473145,100.044434 544.240723,101.037720 547.306702,100.761902 
	C553.105896,100.240211 558.947266,99.830299 564.656799,98.762680 
	C571.440796,97.494156 577.783875,97.601448 584.016663,101.045258 
	C589.854004,104.270561 596.207336,105.414162 602.877197,104.150383 
	C609.705017,102.856667 616.504822,103.495979 623.238220,104.756058 
	C629.042053,105.842163 634.770691,105.997612 640.612793,105.017372 
	C649.669067,103.497833 658.535950,104.696564 667.202026,107.562988 
	C670.522949,108.661446 673.822998,110.349739 677.345520,109.969505 
	C687.374329,108.886925 695.969971,111.801003 703.761597,118.063339 
	C706.312012,120.113152 709.511169,121.424858 712.539917,122.794968 
	C717.612183,125.089500 722.170105,128.157471 726.222290,131.889023 
	C731.927490,137.142654 738.705139,139.610931 746.098572,141.678604 
	C759.017334,145.291504 772.443970,146.779602 784.911926,152.495377 
	C797.408936,158.224442 805.675415,167.671432 812.499084,178.878159 
	C816.383972,185.258469 818.341614,192.738693 823.316223,198.518494 
	C834.522156,211.537994 844.461731,225.543655 854.367981,239.519501 
	C859.591980,246.889618 863.697205,255.146225 865.533691,264.380890 
	C867.966797,276.615448 869.348022,289.053497 873.192810,301.036072 
	C876.050293,309.941589 880.066589,318.425018 886.350708,324.900482 
	C895.937256,334.778992 905.670654,344.681671 916.776001,352.985718 
	C920.410645,355.703552 923.480835,358.936768 926.487732,362.300873 
	C938.172302,375.373566 944.363220,391.064301 948.053284,407.858185 
	C951.629517,424.134094 954.499939,440.623718 961.616333,455.843353 
	C969.237854,472.143372 973.290100,489.454285 977.291870,506.844360 
	C980.951416,522.747009 982.550659,539.245605 988.323914,554.493469 
	C992.522705,565.583130 994.834106,576.796875 996.332275,588.344177 
	C998.260193,603.204956 999.711731,618.109131 1002.192810,632.920349 
	C1004.947144,649.362915 1005.239929,666.056152 1004.389038,682.746033 
	C1003.439453,701.372131 1001.426575,719.957825 1002.187073,738.654358 
	C1002.444092,744.972717 1002.839294,751.269287 1002.538574,757.625793 
	C1001.554810,778.411804 999.251221,799.113281 999.708313,820.000916 
	C1000.111755,838.436401 996.604797,856.468506 991.178406,874.098267 
	C990.131958,877.498108 989.043884,881.486023 986.108337,883.074280 
	C975.831421,888.634521 970.447388,897.917114 965.595947,907.797180 
	C965.382385,908.232117 964.928040,908.541748 964.643921,908.950134 
	C953.728455,924.643372 941.993469,939.756836 931.567139,955.797852 
	C928.667236,960.259399 925.498901,964.473328 921.523743,968.157898 
	C916.164124,973.125793 910.326721,978.133057 908.200745,985.366333 
	C904.670044,997.379272 896.188232,1003.676086 885.080139,1007.460022 
	C877.594666,1010.009827 870.973816,1014.156799 864.591614,1018.674927 
	C862.551514,1020.119141 859.877258,1021.988586 863.000000,1025.000000 
M485.650299,945.583679 
	C486.648987,945.584045 487.677063,945.427551 488.641907,945.608337 
	C501.923309,948.097839 515.434692,947.869751 528.822876,948.405212 
	C543.414490,948.988770 558.070251,948.510376 572.721619,947.903381 
	C590.337463,947.173584 607.877625,945.724060 625.246155,943.297485 
	C646.596130,940.314819 667.789185,935.924744 688.564453,929.995361 
	C717.407654,921.763489 745.280273,911.106323 771.441528,896.186707 
	C789.158325,886.082764 805.769348,874.424927 820.346619,860.249023 
	C833.737610,847.226746 844.648010,832.149170 852.367493,814.951599 
	C858.385254,801.545349 861.267822,787.327515 861.352295,772.833557 
	C861.428772,759.705322 858.918701,746.732117 853.671387,734.490601 
	C852.060059,730.731628 851.250427,727.091980 852.988037,722.978943 
	C859.418945,707.756958 862.214294,691.951172 860.750122,675.350891 
	C859.808228,664.672363 857.805115,654.345520 853.652527,644.457825 
	C852.215210,641.035400 851.349915,637.757263 852.942383,633.946167 
	C859.235107,618.886597 862.021729,603.286987 860.798950,586.841614 
	C859.821533,573.696960 856.466431,561.349243 851.132446,549.437195 
	C843.335510,532.024780 831.803467,517.311218 818.016663,504.301941 
	C814.557373,501.037811 813.248230,497.813293 814.363831,492.828735 
	C816.749878,482.167328 817.757874,471.397308 816.884277,460.297546 
	C815.676880,444.957458 812.163330,430.471863 804.993408,416.905609 
	C790.700684,389.862518 769.473206,370.709534 740.326660,360.814911 
	C725.077820,355.638245 709.489868,352.792358 693.306580,355.315308 
	C689.858521,355.852844 687.146973,354.539520 684.918152,351.965424 
	C680.536682,346.905273 675.456970,342.510651 670.109802,338.620605 
	C654.584595,327.325897 637.543945,319.837494 618.259521,316.869171 
	C598.415894,313.814758 579.387817,315.999969 561.108521,323.360504 
	C551.528320,327.218170 543.768860,329.099274 533.360779,323.948853 
	C515.601257,315.160645 495.951111,312.688751 476.102905,315.575439 
	C468.099213,316.739471 460.097137,318.141327 452.392334,321.114990 
	C442.388214,324.976013 432.854675,329.566071 424.192078,335.878662 
	C420.746643,338.389404 418.989624,337.613129 418.037872,333.519440 
	C416.722961,327.863678 414.951965,322.312988 413.668304,316.651062 
	C410.000580,300.473755 407.075165,284.169495 405.259216,267.661957 
	C403.663177,253.153854 401.681671,238.680954 401.655457,224.053070 
	C401.621643,205.165970 397.438538,187.507339 386.473145,171.829239 
	C384.381531,168.838684 383.530853,165.700714 383.576843,162.033691 
	C383.725159,150.203995 383.369720,138.364639 383.678253,126.541260 
	C383.982483,114.882980 380.830750,104.435783 373.529816,95.467514 
	C361.577301,80.785347 345.988556,74.719749 327.430389,78.600441 
	C310.776154,82.083015 299.367188,92.307388 293.548187,108.517136 
	C290.449493,117.149010 290.214294,126.101494 290.405060,135.086868 
	C290.480438,138.637787 289.601898,140.819107 285.963867,142.358978 
	C278.480682,145.526459 271.332153,149.473663 263.942413,152.875183 
	C247.168640,160.596237 230.236649,167.979355 213.550476,175.883026 
	C199.195328,182.682571 184.141708,188.315979 173.203323,200.886551 
	C162.974319,212.641922 157.077560,226.145020 156.510818,241.518677 
	C155.687088,263.863464 164.285400,282.538818 181.835297,296.341156 
	C196.380585,307.780457 213.122101,312.603943 231.863266,309.852386 
	C241.350815,308.459442 250.757019,306.163544 260.541260,306.274323 
	C261.863068,308.993103 261.486572,311.820679 261.072174,314.589172 
	C258.883636,329.210419 257.897369,343.982086 257.572876,358.691833 
	C257.107849,379.772675 256.779236,400.887085 259.202301,421.970001 
	C260.735260,435.307922 262.188690,448.605194 264.950836,461.759796 
	C267.481079,473.810181 270.640411,485.652039 275.077423,497.144470 
	C276.100494,499.794312 276.084686,502.062927 273.578674,504.197083 
	C265.952301,510.691650 259.514862,518.311462 253.665894,526.409607 
	C240.575775,544.533264 231.835312,564.396240 230.423996,586.969238 
	C229.403885,603.285339 231.939621,619.191711 238.238022,634.243835 
	C239.939621,638.310425 238.955368,641.267090 237.693832,644.569519 
	C227.368103,671.600159 227.734329,698.426880 239.151703,725.032227 
	C240.096390,727.233643 240.011429,728.964417 239.056564,731.142212 
	C228.842026,754.437744 227.573898,778.487793 234.592667,802.719543 
	C240.180176,822.009827 250.997147,838.553040 264.507141,853.318420 
	C291.557343,882.882324 325.865784,901.373474 362.249237,916.334839 
	C379.568024,923.456604 397.610321,928.709351 415.831512,933.301208 
	C438.529663,939.021301 461.546082,942.713989 485.650299,945.583679 
M661.638367,197.156281 
	C666.672363,192.049026 669.297913,184.904800 675.197021,180.389160 
	C676.343689,181.527359 676.446045,182.558350 676.133301,183.483505 
	C674.038086,189.681229 674.413391,196.279343 672.958801,202.590012 
	C672.144287,206.123642 671.680908,209.777023 671.463806,213.400696 
	C671.108643,219.330551 676.223022,218.377136 679.586731,219.254684 
	C682.866394,220.110275 683.284058,217.590439 683.680603,215.091705 
	C685.315002,204.793045 687.146912,194.525284 688.730103,184.219101 
	C689.759705,177.516541 691.631165,170.936447 691.719727,164.092148 
	C691.734436,162.952179 692.114868,161.827728 691.041687,160.860031 
	C687.643616,157.795914 678.015747,158.202209 675.211975,161.829987 
	C669.224121,169.577972 663.475586,177.510605 657.518738,185.283051 
	C654.998962,188.570724 653.565552,188.342529 652.196594,184.413055 
	C649.571716,176.878876 646.825195,169.362152 644.739807,161.672577 
	C642.985535,155.204071 640.413757,150.766479 632.726868,150.466782 
	C627.234436,150.252625 626.173035,150.449097 625.373657,156.218018 
	C624.873840,159.824799 624.239258,163.412689 623.695374,167.013641 
	C621.840027,179.297226 620.013672,191.585190 618.136475,203.865417 
	C617.812378,205.985184 617.830505,207.817505 620.098022,208.942810 
	C624.885071,211.318436 629.827942,209.027435 630.595459,203.782425 
	C631.578430,197.065002 633.287964,190.479401 633.774109,183.656235 
	C634.000793,180.475327 634.233643,176.939972 636.627197,173.887863 
	C640.186951,181.039810 642.176331,188.253738 644.410400,195.351410 
	C645.825134,199.845856 648.745300,201.585388 653.073730,202.222885 
	C657.097656,202.815552 659.283875,200.642731 661.638367,197.156281 
M535.145691,275.364136 
	C536.438049,279.587402 534.934875,282.800812 530.504517,283.994568 
	C522.991760,286.018860 515.387512,286.736237 508.289307,282.549896 
	C504.351410,280.227356 502.832001,283.358826 501.023529,285.486115 
	C499.197601,287.633850 499.111847,290.002991 501.543884,292.041016 
	C503.350006,293.554565 505.324463,294.723663 507.531097,295.552399 
	C518.562805,299.695496 529.086365,297.776642 539.278381,292.768860 
	C545.727539,289.600159 549.384521,282.880920 548.919800,276.215454 
	C548.360413,268.191986 544.608337,262.828369 536.745789,260.505432 
	C529.473389,258.356812 521.878662,260.016937 514.524414,258.489349 
	C511.487244,257.858459 508.294891,257.931244 507.800079,254.048584 
	C507.273804,249.919525 510.135529,247.885696 513.500977,246.991684 
	C520.033752,245.256271 526.622314,244.771881 532.771057,248.504211 
	C534.870117,249.778320 536.339600,249.400482 537.893921,247.493256 
	C541.601135,242.944336 541.379700,240.430695 536.233398,237.567947 
	C524.502319,231.042313 513.204956,232.969254 502.381409,239.891754 
	C496.140625,243.883224 493.736572,250.014923 494.633606,257.063385 
	C495.547333,264.242798 500.547943,268.252075 507.172424,270.426178 
	C512.356079,272.127411 517.712341,271.347290 522.999939,271.636658 
	C527.057373,271.858734 531.334045,271.636444 535.145691,275.364136 
M734.211731,312.613800 
	C730.132080,320.846436 730.132080,320.846436 736.998657,323.889099 
	C741.341614,325.813507 743.439880,324.756622 746.345520,318.844025 
	C748.371948,314.720825 749.926880,310.336609 753.260742,306.978760 
	C755.624084,307.897369 755.574219,310.030182 756.039551,311.638733 
	C757.876221,317.987762 760.087952,324.320038 760.990417,330.820953 
	C761.829773,336.867432 765.076599,340.278351 769.993958,342.823914 
	C771.695374,343.704620 773.423950,345.444824 775.424927,343.804657 
	C777.242676,342.314697 776.598633,340.231262 776.167786,338.240448 
	C774.308838,329.651520 772.039490,321.175690 769.398071,312.795502 
	C767.208313,305.848267 767.363159,305.497498 774.462769,303.814331 
	C783.197937,301.743408 791.831238,299.375397 800.117920,295.870850 
	C801.177368,295.422821 802.463379,295.164886 802.704834,293.802917 
	C803.003235,292.120087 801.580627,291.550720 800.498901,290.832184 
	C795.491638,287.506165 790.718445,285.584930 784.356506,288.589905 
	C778.119019,291.536163 771.105469,292.840363 764.430786,294.859528 
	C763.146545,295.248016 761.851929,295.627747 760.499146,294.045624 
	C761.811340,289.030426 765.117310,284.783569 767.668457,280.210999 
	C770.777771,274.638062 770.915405,274.573730 765.666992,271.359161 
	C764.959900,270.926086 764.304382,270.409882 763.611877,269.951904 
	C760.863892,268.134369 758.909851,268.468933 757.177979,271.599274 
	C749.710999,285.096008 742.067566,298.495148 734.211731,312.613800 
M661.651672,274.563141 
	C659.967102,263.397003 656.906677,252.539062 654.166443,241.614868 
	C652.848389,236.360413 643.398254,231.883789 638.114014,233.693939 
	C636.762207,234.157028 635.907349,235.135437 635.175720,236.266403 
	C625.134277,251.788269 616.814697,268.259521 608.499817,284.731293 
	C607.008606,287.685272 608.204956,289.448914 611.238464,290.296051 
	C617.563232,292.062408 619.885315,290.986389 623.013977,284.597656 
	C624.342590,281.884735 625.326294,278.992920 629.374268,279.690979 
	C634.589355,280.590240 639.838074,281.299713 645.080322,282.033997 
	C648.619446,282.529755 650.325500,283.964996 650.563171,288.058441 
	C650.979370,295.225739 653.501526,297.219635 660.016113,297.640930 
	C663.452454,297.863190 665.164856,296.559601 664.625793,293.053162 
	C663.720581,287.164703 662.690857,281.295380 661.651672,274.563141 
M747.634583,191.542603 
	C747.373291,178.478531 749.890930,179.598969 735.891785,174.899612 
	C733.238647,174.008987 731.534241,174.329041 729.749573,176.303558 
	C725.417419,181.096634 720.930786,185.750443 716.616943,190.559555 
	C708.416016,199.701935 700.492920,209.077026 693.188904,218.964264 
	C692.203735,220.297806 691.456482,221.383331 692.963196,222.819275 
	C696.731812,226.410919 704.092163,225.821716 707.391663,221.637482 
	C708.008179,220.855591 708.876709,220.225616 709.325806,219.366959 
	C710.951660,216.258652 713.271851,216.345001 716.067871,217.551712 
	C719.878906,219.196472 723.626282,221.287033 727.624146,222.137268 
	C735.485413,223.809174 735.087219,226.453674 734.077698,231.954132 
	C733.122559,237.158585 735.191956,239.036285 739.179077,240.934784 
	C745.219421,243.810928 745.369690,243.799911 746.877991,237.376251 
	C747.419800,235.068771 747.630981,232.802811 747.630615,230.473007 
	C747.628479,217.824905 747.632568,205.176819 747.634583,191.542603 
M595.976562,173.395065 
	C593.990784,168.831253 592.057861,164.243576 590.009033,159.708282 
	C584.478394,147.465714 587.952271,149.621140 573.741455,149.418213 
	C573.575256,149.415848 573.408936,149.426819 573.242676,149.429321 
	C570.613464,149.468765 569.168457,150.695160 568.129517,153.248215 
	C561.740356,168.948318 556.449341,185.023514 551.462585,201.203079 
	C549.408508,207.867691 550.879822,209.549286 557.783264,209.571930 
	C562.973450,209.588943 564.127075,206.093002 564.628113,202.095779 
	C565.122009,198.155182 566.801819,196.080795 571.093018,196.532333 
	C573.724609,196.809204 576.415100,196.699326 579.068604,196.561234 
	C585.771667,196.212418 592.314575,195.404373 593.701416,204.996872 
	C594.197205,208.426193 600.327759,209.675003 604.068665,208.020416 
	C608.206421,206.190323 606.434204,203.135056 605.618164,200.371307 
	C602.983643,191.448929 599.728394,182.742722 595.976562,173.395065 
M732.304565,262.197510 
	C726.950562,251.498550 710.521667,245.996185 700.298157,248.676559 
	C681.964905,253.483185 674.066528,270.876953 675.865417,287.208679 
	C677.430298,301.416046 687.261292,308.229156 700.087158,311.595673 
	C708.264709,313.742126 715.870178,312.523163 722.689697,307.249817 
	C724.358521,305.959381 725.121826,304.678253 724.060852,302.595581 
	C721.596436,297.757690 717.687256,296.414398 712.896423,298.874847 
	C704.121887,303.381256 690.837280,297.109283 689.767944,287.827118 
	C689.009155,281.240723 689.849365,274.899811 693.549622,269.140472 
	C697.021973,263.736053 701.575073,260.228027 708.297241,260.706177 
	C714.909363,261.176514 719.979370,264.028778 722.689148,270.469391 
	C724.566711,274.932129 727.582947,275.602905 732.767334,273.370178 
	C737.453613,271.351959 734.965576,268.264954 734.118591,265.442169 
	C733.839294,264.511414 733.153259,263.702728 732.304565,262.197510 
M562.132812,241.546585 
	C565.128906,241.559464 568.142578,241.782639 571.116821,241.534302 
	C575.231384,241.190735 576.605530,242.704163 576.519714,246.911148 
	C576.268555,259.223633 576.360535,271.545441 576.475403,283.862122 
	C576.531555,289.880890 581.061584,292.524750 586.267029,289.820526 
	C589.248840,288.271423 589.651367,285.562897 589.646301,282.602234 
	C589.626099,270.783936 589.760132,258.963654 589.574829,247.148239 
	C589.511780,243.126495 590.771545,241.300262 594.965942,241.580658 
	C598.278503,241.802109 601.628296,241.726135 604.946777,241.530579 
	C608.969116,241.293533 609.497742,238.321930 609.566223,235.103394 
	C609.636414,231.805084 608.440918,229.443115 604.807983,229.437668 
	C590.827332,229.416733 576.845825,229.449417 562.866211,229.600433 
	C560.356689,229.627533 557.587708,230.154404 557.488464,233.538498 
	C557.394470,236.745102 556.510010,240.526688 562.132812,241.546585 
M517.808228,204.584610 
	C511.754395,206.554337 509.150574,204.994553 508.371338,198.825165 
	C506.860992,186.867264 503.887207,175.101562 501.869659,163.196930 
	C500.974030,157.912094 497.667023,157.819199 493.832184,158.612778 
	C490.153839,159.373978 487.844818,161.235489 489.120392,165.682571 
	C489.793304,168.028503 489.679779,170.574829 490.167603,173.037231 
	C492.706573,185.853043 495.108093,198.698471 497.348755,211.569916 
	C498.353943,217.343948 499.891724,218.670715 505.745544,217.495621 
	C514.998047,215.638229 524.228943,213.672882 533.485107,211.834259 
	C541.870056,210.168686 542.308350,209.497833 539.650391,201.166275 
	C532.542053,201.308533 525.704468,203.549744 517.808228,204.584610 
M444.553741,188.800766 
	C443.772736,186.610077 442.984528,184.421921 442.212189,182.228195 
	C440.434692,177.179520 438.885864,176.470978 433.488251,178.252701 
	C428.794037,179.802246 427.697632,181.663132 429.557373,186.557068 
	C435.105804,201.157730 440.855591,215.682053 446.562103,230.222305 
	C448.098083,234.135986 451.212494,235.665298 455.016418,234.320786 
	C465.047272,230.775345 475.030396,227.066376 484.878113,223.044418 
	C489.153687,221.298187 489.473846,218.351288 486.873718,214.590530 
	C484.854736,211.670334 482.507721,212.359253 479.833466,213.330750 
	C472.418274,216.024536 465.336029,219.791534 457.388428,220.972565 
	C452.070587,210.594788 449.315186,199.708344 444.553741,188.800766 
z"/>
<path fill="#000000" opacity="1.000000" stroke="none" 
	d="
M306.978699,500.787506 
	C303.669098,493.121307 300.479309,485.832672 298.130188,478.174683 
	C293.493225,463.058380 290.498016,447.667542 288.495239,431.976196 
	C285.495941,408.477417 285.163666,384.909149 285.676208,361.319366 
	C286.025543,345.239288 287.390289,329.190186 289.415100,313.213348 
	C290.873688,301.704651 292.412506,290.200958 293.548859,278.658905 
	C294.084442,273.218903 293.016144,272.644653 287.523926,273.461182 
	C267.674103,276.412262 247.829483,279.401459 227.962860,282.235565 
	C211.408554,284.597229 194.423996,275.256256 187.828583,260.374176 
	C180.942108,244.835358 184.853348,227.723923 197.310623,216.157532 
	C203.510010,210.401505 211.219498,207.703171 218.520691,204.238861 
	C237.596481,195.187729 256.763031,186.304855 276.127502,177.893814 
	C287.780548,172.832291 298.522736,165.343796 311.698120,164.057678 
	C316.731964,163.566315 318.626923,160.143509 318.606659,155.315659 
	C318.563385,144.983749 318.493622,134.649216 318.673920,124.319916 
	C318.841278,114.731018 323.929016,108.277283 332.668915,106.020622 
	C340.922180,103.889626 349.077271,107.515045 353.440948,115.199799 
	C354.881409,117.736488 355.415710,120.417046 355.408051,123.323280 
	C355.366272,139.154556 355.515320,154.987274 355.343689,170.816711 
	C355.293610,175.436523 356.598694,178.949661 359.758820,182.460602 
	C366.904205,190.399277 371.388397,199.880051 372.307343,210.585129 
	C373.611511,225.777664 373.796906,241.082458 375.515594,256.219482 
	C378.245300,280.260956 381.425781,304.263306 387.602936,327.759705 
	C390.816772,339.984406 394.169373,352.110565 399.191040,363.760101 
	C403.609283,374.009644 416.582367,381.023926 428.146332,368.917847 
	C442.094940,354.315338 459.358307,345.831573 479.766846,343.430542 
	C499.253357,341.137939 517.642639,344.495178 533.572754,355.236664 
	C543.016846,361.604675 549.310364,362.041260 558.648132,355.510071 
	C572.474060,345.839722 588.904602,342.740173 605.648315,343.754517 
	C630.912292,345.285065 651.997986,355.647339 668.004883,375.619293 
	C668.213379,375.879303 668.467468,376.117157 668.616577,376.408203 
	C672.833557,384.641693 678.048889,386.613922 688.045837,384.399475 
	C710.024719,379.530792 731.179443,384.041077 750.266235,396.648712 
	C770.935120,410.301422 783.457214,429.515930 787.993530,453.618561 
	C791.193420,470.620667 788.704346,487.182159 781.543701,503.122375 
	C774.725708,518.299866 764.305786,530.218201 750.729553,539.531799 
	C747.321411,541.869812 746.381104,544.326477 746.938477,548.722412 
	C748.291626,559.393738 746.071472,569.900757 742.897705,580.091492 
	C733.135986,611.436279 704.343201,635.022522 671.349121,638.595337 
	C654.174500,640.455078 638.326660,637.231567 623.018250,630.115601 
	C618.987305,628.241821 616.568970,629.092224 614.194397,632.456848 
	C600.594788,651.726685 581.755920,662.781921 558.709656,666.228271 
	C529.386841,670.613159 504.243408,661.662964 483.463348,640.559631 
	C480.909668,637.966187 478.455688,635.163391 476.520142,632.100708 
	C474.079041,628.238098 471.591858,628.152832 467.817535,630.214050 
	C455.558258,636.908997 442.128723,639.576416 428.378723,639.244995 
	C408.752716,638.771973 391.060852,632.590393 375.597748,619.889099 
	C359.878845,606.977722 350.287506,590.637268 346.076233,571.029114 
	C344.686615,564.558838 344.276489,557.858215 344.650421,551.178345 
	C344.973572,545.406189 342.967468,541.211487 337.833160,537.815918 
	C324.031708,528.688171 314.451813,515.800049 306.978699,500.787506 
M296.023895,230.278244 
	C306.366089,233.539093 316.727264,225.582581 319.333679,216.580612 
	C322.291351,206.365311 315.383270,196.096054 304.030273,192.865875 
	C296.247467,190.651489 285.089386,197.448166 282.498688,205.981277 
	C279.388245,216.226334 284.940430,226.630844 296.023895,230.278244 
z"/>
<path fill="#000000" opacity="1.000000" stroke="none" 
	d="
M614.282166,746.933594 
	C610.495850,741.091980 605.498291,738.757996 598.851257,739.311768 
	C573.487549,741.424988 548.055847,742.599365 522.633179,741.408081 
	C492.618225,740.001526 462.724457,736.822571 433.384277,730.141785 
	C400.720825,722.704224 369.042053,712.240051 339.422516,696.264221 
	C316.257507,683.769714 295.069550,668.664795 278.651123,647.773743 
	C264.729218,630.059387 256.794708,610.127869 258.717194,587.170593 
	C259.994293,571.920410 265.555176,558.138000 274.368744,545.691528 
	C277.718384,540.961121 281.384583,536.452454 284.969574,531.892395 
	C286.192444,530.336914 287.480865,528.771912 289.980774,528.089478 
	C294.570801,532.419678 297.303284,538.467712 301.860901,543.093384 
	C305.350006,546.634583 308.240173,550.836548 312.562714,553.428162 
	C317.809265,556.573730 316.642731,562.038147 317.099609,566.452759 
	C319.488007,589.532349 328.558746,609.549866 343.389679,627.160889 
	C360.646973,647.653076 382.699188,660.047180 408.759735,665.334656 
	C425.125183,668.655029 441.570343,668.203064 457.515472,663.130615 
	C463.256195,661.304321 467.097870,662.778931 470.917297,666.439392 
	C480.059021,675.200684 490.717377,681.617493 502.329620,686.452148 
	C518.187500,693.054382 534.825867,696.722168 551.922607,695.417114 
	C578.721680,693.371460 602.586304,683.561890 622.396362,664.978882 
	C625.312317,662.243530 627.768066,661.753601 631.681580,662.914856 
	C649.348083,668.156921 667.209656,668.555969 685.304810,664.661072 
	C708.291992,659.713196 727.824219,648.724304 743.908508,631.796875 
	C759.996887,614.865295 770.220581,594.852844 773.645813,571.560059 
	C774.153870,568.105286 774.849609,564.694336 774.678711,561.169434 
	C774.578857,559.109985 775.135986,557.040894 776.526489,555.593933 
	C785.032837,546.742920 793.554565,537.913818 800.483887,527.510803 
	C807.076416,530.925232 810.286438,536.742676 814.178162,541.784424 
	C826.086182,557.211243 833.153931,574.690735 833.195679,594.237854 
	C833.234070,612.209473 826.455811,628.208496 816.220398,642.883728 
	C803.718933,660.808044 787.164978,674.248474 769.121094,686.040100 
	C763.152649,689.940430 756.857666,693.381470 750.526367,696.675842 
	C742.988037,700.598083 739.280640,706.255737 739.356140,715.031189 
	C739.612549,744.854370 739.476868,774.681091 739.456055,804.506470 
	C739.450378,812.548279 733.352356,818.968689 725.535400,819.312012 
	C717.077637,819.683472 709.769470,813.174988 709.657288,804.716309 
	C709.484924,791.719971 709.827148,778.715271 709.562256,765.722107 
	C709.381775,756.869385 708.244568,748.163025 702.294006,740.861206 
	C694.573853,731.388062 684.504639,726.401245 672.547302,727.772705 
	C658.899109,729.338135 648.820007,736.806396 643.721741,750.086304 
	C641.968811,754.652405 641.279114,759.322083 641.299194,764.240417 
	C641.411499,791.737427 641.393738,819.235291 641.332397,846.732666 
	C641.312500,855.653687 636.377502,860.509155 627.823242,860.383179 
	C620.299744,860.272339 615.644531,855.497437 615.634338,847.616150 
	C615.594604,816.952271 615.600708,786.288330 615.644409,755.624512 
	C615.648499,752.759277 615.414368,749.983154 614.282166,746.933594 
z"/>
<path fill="#000000" opacity="1.000000" stroke="none" 
	d="
M360.656647,826.254395 
	C379.037109,833.187378 397.337646,839.111450 416.027557,843.876770 
	C436.410400,849.073669 457.096863,852.649597 477.908142,855.331299 
	C493.022888,857.278931 508.310699,857.749512 523.530334,858.758789 
	C533.839905,859.442322 544.105042,858.986328 554.382629,859.317505 
	C563.299744,859.604858 572.301514,858.879456 581.187012,857.892273 
	C586.065735,857.350220 588.721191,858.070618 590.602173,863.133301 
	C597.257141,881.045654 615.911621,890.565918 633.704773,888.465332 
	C651.224243,886.397034 667.536499,871.122803 669.149048,853.521729 
	C669.839844,845.982483 672.921265,843.981689 679.002014,842.918274 
	C682.585266,842.291626 686.131897,841.428650 689.541504,839.995056 
	C694.303223,837.992798 698.401855,838.353760 703.345032,841.283569 
	C727.943848,855.862854 760.412292,841.839172 766.700623,813.422485 
	C767.374817,810.375732 768.708618,808.136841 771.666382,806.473755 
	C785.899231,798.470825 799.396362,789.293945 811.894897,778.810242 
	C818.616577,773.171997 824.488953,766.521362 831.154663,759.921631 
	C833.617493,765.611023 833.660583,771.165833 833.208008,776.701294 
	C831.289062,800.168640 820.372925,819.425232 804.538879,836.116882 
	C782.635132,859.206970 755.644165,874.740173 726.677856,887.058105 
	C704.459839,896.506226 681.511597,903.810486 657.855774,908.754456 
	C636.744141,913.166687 615.485718,916.504028 593.978149,918.516724 
	C570.559082,920.708191 547.103149,920.854370 523.680481,920.204285 
	C506.646515,919.731567 489.626373,918.110718 472.665131,915.712952 
	C453.393768,912.988586 434.346436,909.419373 415.584198,904.387817 
	C383.168701,895.694946 352.030884,883.819885 323.526886,865.789185 
	C300.182190,851.022156 279.882660,833.208862 266.917725,808.190857 
	C259.901978,794.652771 257.793396,780.212830 258.669312,765.180786 
	C258.768402,763.480164 259.347321,761.967773 260.355011,760.651794 
	C261.573425,760.404846 262.370850,761.106140 262.996857,761.847717 
	C283.050812,785.603455 309.064636,801.265503 336.134155,815.390625 
	C343.931641,819.459351 352.252014,822.525940 360.656647,826.254395 
z"/>
<path fill="#000000" opacity="1.000000" stroke="none" 
	d="
M329.349274,722.614014 
	C352.904877,734.472473 377.097748,743.847473 402.049500,750.952759 
	C418.741333,755.705933 435.819946,759.347534 452.928741,762.314331 
	C467.571930,764.853699 482.473511,765.991211 497.275452,767.632935 
	C521.337891,770.301514 545.440002,769.239563 569.529175,769.613281 
	C574.176636,769.685364 578.679077,768.200378 583.394958,768.473999 
	C586.435364,768.650391 587.461243,769.723206 587.445923,772.667175 
	C587.355469,790.163208 587.339172,807.659973 587.388123,825.156128 
	C587.396240,828.043396 586.287781,829.051758 583.399902,829.590698 
	C576.657227,830.848877 569.805298,831.008911 563.064880,831.210083 
	C546.275330,831.711121 529.450623,831.746338 512.669128,830.394714 
	C488.686249,828.463135 464.847260,825.792419 441.220245,820.851135 
	C422.819427,817.002930 404.683105,812.374023 386.974274,806.242371 
	C356.804108,795.795959 328.153687,782.216431 303.179230,761.940613 
	C284.991852,747.174805 269.906219,729.926147 262.211243,707.222595 
	C258.624969,696.641663 258.385193,685.692566 258.580261,674.693298 
	C258.602020,673.465881 258.963104,672.278137 260.144958,671.774231 
	C261.926849,671.014526 262.919617,672.498474 263.926086,673.514954 
	C270.129028,679.779724 276.202728,686.136597 282.955780,691.874878 
	C294.813416,701.950500 307.857758,710.170593 321.264435,717.910583 
	C323.859894,719.409058 326.427338,720.955933 329.349274,722.614014 
z"/>
<path fill="#000000" opacity="1.000000" stroke="none" 
	d="
M831.212280,699.768555 
	C823.423828,735.333679 785.819031,767.018860 768.622009,774.649475 
	C767.233276,773.324097 767.666016,771.566772 767.661621,769.983398 
	C767.619080,754.672424 767.739807,739.360046 767.555542,724.051147 
	C767.510925,720.350220 768.933838,718.375000 772.076965,716.672241 
	C791.466370,706.168518 808.739563,692.800049 824.418884,677.342651 
	C826.582764,675.209412 827.567627,671.804504 831.485718,671.034424 
	C834.824280,680.579773 833.038330,689.965149 831.212280,699.768555 
z"/>
<path fill="#000000" opacity="1.000000" stroke="none" 
	d="
M681.367798,801.884644 
	C681.366699,803.199524 681.359619,804.032837 681.366638,804.865967 
	C681.450195,814.801270 681.450745,814.801270 670.745605,815.712524 
	C669.197388,814.517273 669.646362,812.735535 669.642151,811.159607 
	C669.599792,795.328857 669.621643,779.497986 669.598389,763.667114 
	C669.592590,759.701294 670.230835,756.057007 675.133545,755.806885 
	C678.942200,755.612488 681.302979,758.812622 681.331604,763.908691 
	C681.401672,776.406433 681.363220,788.904785 681.367798,801.884644 
z"/>
<path fill="#000000" opacity="1.000000" stroke="none" 
	d="
M644.422974,253.920441 
	C645.354736,258.183594 646.368652,262.027557 647.130371,265.920898 
	C647.606201,268.352753 646.838928,270.742676 643.914978,270.134888 
	C640.102661,269.342468 635.833923,270.193848 632.008423,267.009399 
	C634.550781,260.596100 637.556702,254.351532 641.672363,248.739609 
	C644.505188,249.781601 644.275146,251.735733 644.422974,253.920441 
z"/>
<path fill="#000000" opacity="1.000000" stroke="none" 
	d="
M735.341431,207.625931 
	C735.496155,210.820389 734.495300,212.313477 731.555908,211.222717 
	C727.712463,209.796478 723.925110,208.219086 719.601624,206.503540 
	C723.849182,199.906815 729.031311,194.786118 734.320007,188.847824 
	C738.154663,195.285950 734.236450,201.397797 735.341431,207.625931 
z"/>
<path fill="#000000" opacity="1.000000" stroke="none" 
	d="
M583.636780,184.295700 
	C578.980408,184.130142 574.816040,186.606216 570.008972,184.485901 
	C571.254456,177.137421 574.464966,170.439499 577.524780,162.127975 
	C581.590271,169.505386 583.846313,176.088120 585.763489,182.795105 
	C586.000854,183.625473 584.901001,184.062714 583.636780,184.295700 
z"/>
</svg>